<svg width="120" height="32" viewBox="0 0 120 32" fill="none" xmlns="http://www.w3.org/2000/svg">
<g clip-path="url(#clip0_6022_2504)">
<path d="M28.2165 5.17038C28.2165 5.17038 28.5267 5.74036 27.8639 6.56818C27.2292 7.35528 24.8599 9.18735 22.6175 10.7616C22.406 10.9108 22.3073 11.1687 22.3919 11.413L24.4932 18.5105C24.5638 18.7276 24.4509 18.9719 24.2394 19.0805L23.774 19.2976C23.6612 19.3519 23.5342 19.3247 23.4496 19.2298L18.6686 13.8421L12.0543 17.3163L12.5902 19.7454C12.6043 19.8269 12.562 19.9083 12.4915 19.949L12.0261 20.1797C11.9556 20.2069 11.8709 20.2069 11.8145 20.1526L9.55803 18.3205L8.61312 18.5784C8.5285 18.6055 8.42978 18.5648 8.38747 18.4969C8.34516 18.4291 8.34516 18.3612 8.37336 18.2934L8.71184 17.7098L4.50911 15.932C4.45269 15.9049 4.45269 15.8235 4.50911 15.8099L4.72065 15.7149C5.01682 15.5928 5.34119 15.5385 5.65146 15.5792L8.50029 15.9185L7.90796 14.8057C7.80924 14.6157 7.87975 14.3985 8.06309 14.2764L8.48619 14.0186C8.59901 13.9507 8.72594 13.9371 8.85287 13.9778L11.5607 14.8735L14.889 12.5258L4.69245 8.0474C4.55142 7.97954 4.53731 7.80312 4.66424 7.70813L4.96041 7.50456C5.20016 7.34171 5.51043 7.27386 5.80659 7.32814L18.6404 9.54019C18.9225 9.59447 19.2187 9.52662 19.4584 9.36377L24.324 5.97106C24.9445 5.53679 25.6497 5.19752 26.3831 5.00753C27.0741 4.83111 27.8498 4.76326 28.2165 5.17038Z" fill="#051036"/>
<path d="M8.23243 11.4674C8.23243 11.2638 8.24654 11.0738 8.26064 10.8703L5.15795 9.51318C5.04512 10.151 4.97461 10.8024 4.97461 11.4674C4.97461 12.5666 5.14385 13.6251 5.45412 14.6158C5.60925 14.6022 5.77849 14.6158 5.93362 14.6294L6.87853 14.738C6.87853 14.2494 7.13239 13.7609 7.59779 13.4759L8.02089 13.218C8.13371 13.1502 8.26064 13.0959 8.40167 13.0552C8.30295 12.553 8.23243 12.0102 8.23243 11.4674Z" fill="#FC5056"/>
<path d="M27.6246 8.56323C26.7361 9.3232 25.6219 10.151 24.7334 10.8024C24.7475 11.0196 24.7616 11.2367 24.7616 11.4674C24.7616 12.3088 24.6206 13.123 24.3809 13.883L25.6925 18.2799L26.172 17.5064C27.3425 15.7693 28.0195 13.693 28.0195 11.481C28.0195 10.4631 27.8784 9.49962 27.6246 8.56323Z" fill="#FC5056"/>
<path d="M31.996 0L24.3521 3.28414C21.6443 1.13995 19.3173 0.379983 16.5108 0.379983C12.0401 0.379983 8.16173 2.82273 6.25781 6.40543L9.67077 6.98897C11.1516 4.8855 13.662 3.50127 16.5108 3.50127C18.9083 3.50127 21.0661 4.49194 22.5751 6.05259L24.8457 4.58694C24.8457 4.58694 24.8457 4.58694 24.8598 4.58694L25.3111 4.30195L31.996 0Z" fill="#FC5056"/>
<path d="M22.7303 20.044L21.0239 18.1169C19.7264 18.9312 18.175 19.4062 16.5109 19.4062C15.5095 19.4062 14.5505 19.2298 13.6761 18.9312L13.8313 19.6504C13.9582 20.2069 13.662 20.7904 13.1261 21.0347L12.6607 21.2654C12.4774 21.3604 12.2658 21.4011 12.0684 21.4011C11.7581 21.4011 11.4619 21.2925 11.2222 21.1025L9.44519 19.664L9.43109 19.6369L-0.00390625 25.703L9.4875 21.5775L15.5659 31.4706C15.989 32.1492 17.0186 32.1627 17.4417 31.4706L24.3522 20.3833C23.8022 20.6411 23.1393 20.5054 22.7303 20.044Z" fill="#FC5056"/>
<path d="M8.71179 19.2297L3.12695 22.826L8.34511 19.0669L8.71179 19.2297Z" fill="#FC5056"/>
</g>
<path d="M51.8009 9.464H45.8969L43.5209 23H39.1769L41.5529 9.464H35.6249L36.2969 5.72H52.4729L51.8009 9.464ZM63.1118 13.904C63.1118 14.448 63.0158 14.976 62.8238 15.488C62.6478 16 62.4718 16.376 62.2958 16.616L62.0318 16.952H58.4078C58.8078 16.584 59.0078 16.128 59.0078 15.584C59.0078 15.296 58.9118 15.064 58.7198 14.888C58.5438 14.696 58.2958 14.6 57.9758 14.6C57.4318 14.6 56.9598 14.872 56.5598 15.416L55.2158 23H51.1358L53.1758 11.456H56.9678L56.6798 13.064C57.5918 11.768 58.6958 11.12 59.9918 11.12C61.0318 11.12 61.8078 11.368 62.3198 11.864C62.8478 12.36 63.1118 13.04 63.1118 13.904ZM68.864 19.928C69.232 19.928 69.56 19.848 69.848 19.688L69.728 22.4C68.976 23.024 68.12 23.336 67.16 23.336C65.704 23.336 64.76 23 64.328 22.328C64.04 21.88 63.896 21.408 63.896 20.912C63.896 20.4 63.928 19.952 63.992 19.568L65.432 11.456H69.512L68.168 19.016C68.152 19.112 68.144 19.2 68.144 19.28C68.144 19.712 68.384 19.928 68.864 19.928ZM65.912 7.544C65.912 6.52 66.136 5.776 66.584 5.312C67.048 4.832 67.76 4.592 68.72 4.592C70.064 4.592 70.736 5.184 70.736 6.368C70.736 7.376 70.504 8.112 70.04 8.576C69.592 9.04 68.88 9.272 67.904 9.272C66.576 9.272 65.912 8.696 65.912 7.544ZM83.3234 13.952C83.3234 14.48 83.1634 14.968 82.8434 15.416H78.9074C79.0354 15.32 79.0994 15.16 79.0994 14.936C79.0994 14.712 78.9714 14.536 78.7154 14.408C78.4594 14.264 78.1314 14.192 77.7314 14.192C76.5314 14.192 75.9314 14.56 75.9314 15.296C75.9314 15.584 76.1554 15.792 76.6034 15.92C77.0514 16.048 77.5954 16.152 78.2354 16.232C78.8754 16.312 79.5154 16.432 80.1554 16.592C80.7954 16.736 81.3394 17.032 81.7874 17.48C82.2354 17.928 82.4594 18.528 82.4594 19.28C82.4594 20.608 81.9234 21.616 80.8514 22.304C79.7954 22.992 78.2514 23.336 76.2194 23.336C74.1874 23.336 72.7634 23.008 71.9474 22.352C71.3074 21.84 70.9874 21.136 70.9874 20.24C70.9874 19.984 71.0114 19.72 71.0594 19.448L75.0674 19.4C75.0354 19.624 75.1634 19.824 75.4514 20C75.7554 20.16 76.1954 20.24 76.7714 20.24C77.3474 20.24 77.7634 20.184 78.0194 20.072C78.2754 19.944 78.4034 19.712 78.4034 19.376C78.4034 19.152 78.1794 19 77.7314 18.92C77.2834 18.824 76.7314 18.744 76.0754 18.68C75.4354 18.616 74.7874 18.512 74.1314 18.368C73.4914 18.224 72.9474 17.92 72.4994 17.456C72.0514 16.992 71.8274 16.384 71.8274 15.632C71.8274 14.176 72.3874 13.056 73.5074 12.272C74.6434 11.488 76.2754 11.096 78.4034 11.096C81.6834 11.096 83.3234 12.048 83.3234 13.952ZM91.6713 11.12C93.3993 11.12 94.7033 11.496 95.5833 12.248C96.2713 12.84 96.6153 13.664 96.6153 14.72C96.6153 15.072 96.5753 15.456 96.4953 15.872L95.9913 18.68C95.6873 20.376 94.9753 21.576 93.8553 22.28C92.7513 22.984 91.2713 23.336 89.4153 23.336C87.5593 23.336 86.1993 22.984 85.3353 22.28C84.6953 21.752 84.3753 20.96 84.3753 19.904C84.3753 19.536 84.4153 19.128 84.4953 18.68L84.9993 15.872C85.5593 12.704 87.7833 11.12 91.6713 11.12ZM92.3193 16.352C92.3513 16.192 92.3673 15.992 92.3673 15.752C92.3673 15.496 92.2633 15.216 92.0553 14.912C91.8473 14.608 91.4793 14.456 90.9513 14.456C90.4393 14.456 90.0073 14.632 89.6553 14.984C89.3033 15.32 89.0793 15.776 88.9833 16.352L88.6713 18.152C88.6393 18.312 88.6233 18.52 88.6233 18.776C88.6233 19.016 88.7273 19.28 88.9353 19.568C89.1433 19.856 89.5033 20 90.0153 20C90.5433 20 90.9833 19.824 91.3353 19.472C91.6873 19.104 91.9113 18.664 92.0073 18.152L92.3193 16.352ZM108.602 23.384C108.25 25.416 107.442 27.024 106.178 28.208C104.93 29.392 103.498 29.984 101.882 29.984C100.266 29.984 99.0982 29.688 98.3782 29.096C97.6742 28.504 97.3222 27.728 97.3222 26.768C97.3222 25.36 98.2182 24.136 100.01 23.096C98.6502 22.664 97.9702 21.632 97.9702 20C97.9702 19.6 98.0102 19.16 98.0902 18.68L98.5702 15.872C98.8262 14.432 99.4182 13.288 100.346 12.44C101.274 11.576 102.474 11.144 103.946 11.144C105.434 11.144 106.45 11.504 106.994 12.224L107.138 11.456H110.714L108.602 23.384ZM102.266 18.152C102.234 18.296 102.218 18.496 102.218 18.752C102.218 19.008 102.338 19.264 102.578 19.52C102.818 19.76 103.218 19.88 103.778 19.88C104.354 19.88 104.85 19.656 105.266 19.208L105.986 15.176C105.762 14.776 105.338 14.576 104.714 14.576C104.09 14.576 103.602 14.736 103.25 15.056C102.898 15.376 102.674 15.808 102.578 16.352L102.266 18.152ZM102.434 26.552C103.474 26.552 104.154 25.608 104.474 23.72L104.714 22.328C102.49 23.368 101.378 24.416 101.378 25.472C101.378 25.792 101.466 26.048 101.642 26.24C101.834 26.448 102.098 26.552 102.434 26.552Z" fill="#051036"/>
<defs>
<clipPath id="clip0_6022_2504">
<rect width="32" height="32" fill="white"/>
</clipPath>
</defs>
</svg>
