<svg width="120" height="33" viewBox="0 0 120 33" fill="none" xmlns="http://www.w3.org/2000/svg">
<g clip-path="url(#clip0_6117_1016)">
<path d="M28.2165 5.44504C28.2165 5.44504 28.5267 6.01502 27.8639 6.84284C27.2292 7.62994 24.8599 9.462 22.6175 11.0362C22.406 11.1855 22.3073 11.4433 22.3919 11.6876L24.4932 18.7852C24.5638 19.0023 24.4509 19.2466 24.2394 19.3551L23.774 19.5723C23.6612 19.6266 23.5342 19.5994 23.4496 19.5044L18.6686 14.1168L12.0543 17.5909L12.5902 20.0201C12.6043 20.1015 12.562 20.183 12.4915 20.2237L12.0261 20.4544C11.9556 20.4815 11.8709 20.4815 11.8145 20.4272L9.55803 18.5952L8.61312 18.853C8.5285 18.8802 8.42978 18.8394 8.38747 18.7716C8.34516 18.7037 8.34516 18.6359 8.37336 18.568L8.71184 17.9845L4.50911 16.2067C4.45269 16.1796 4.45269 16.0981 4.50911 16.0846L4.72065 15.9896C5.01682 15.8674 5.34119 15.8131 5.65146 15.8539L8.50029 16.1931L7.90796 15.0803C7.80924 14.8903 7.87975 14.6732 8.06309 14.5511L8.48619 14.2932C8.59901 14.2254 8.72594 14.2118 8.85287 14.2525L11.5607 15.1482L14.889 12.8004L4.69245 8.32205C4.55142 8.2542 4.53731 8.07778 4.66424 7.98278L4.96041 7.77922C5.20016 7.61637 5.51043 7.54852 5.80659 7.6028L18.6404 9.81485C18.9225 9.86913 19.2187 9.80127 19.4584 9.63842L24.324 6.24572C24.9445 5.81145 25.6497 5.47218 26.3831 5.28219C27.0741 5.10577 27.8498 5.03792 28.2165 5.44504Z" fill="white"/>
<path d="M8.23243 11.742C8.23243 11.5385 8.24654 11.3485 8.26064 11.1449L5.15795 9.78784C5.04512 10.4257 4.97461 11.0771 4.97461 11.742C4.97461 12.8413 5.14385 13.8998 5.45412 14.8905C5.60925 14.8769 5.77849 14.8905 5.93362 14.904L6.87853 15.0126C6.87853 14.5241 7.13239 14.0355 7.59779 13.7505L8.02089 13.4927C8.13371 13.4248 8.26064 13.3705 8.40167 13.3298C8.30295 12.8277 8.23243 12.2849 8.23243 11.742Z" fill="#F8D448"/>
<path d="M27.6246 8.83789C26.7361 9.59786 25.6219 10.4257 24.7334 11.0771C24.7475 11.2942 24.7616 11.5113 24.7616 11.742C24.7616 12.5834 24.6206 13.3977 24.3809 14.1577L25.6925 18.5546L26.172 17.7811C27.3425 16.044 28.0195 13.9677 28.0195 11.7556C28.0195 10.7378 27.8784 9.77428 27.6246 8.83789Z" fill="#F8D448"/>
<path d="M31.996 0.274658L24.3521 3.5588C21.6443 1.41461 19.3173 0.654641 16.5108 0.654641C12.0401 0.654641 8.16173 3.09739 6.25781 6.68009L9.67077 7.26363C11.1516 5.16015 13.662 3.77593 16.5108 3.77593C18.9083 3.77593 21.0661 4.7666 22.5751 6.32724L24.8457 4.8616C24.8457 4.8616 24.8457 4.8616 24.8598 4.8616L25.3111 4.57661L31.996 0.274658Z" fill="#F8D448"/>
<path d="M22.7303 20.3187L21.0239 18.3916C19.7264 19.2059 18.175 19.6808 16.5109 19.6808C15.5095 19.6808 14.5505 19.5044 13.6761 19.2059L13.8313 19.9251C13.9582 20.4815 13.662 21.0651 13.1261 21.3093L12.6607 21.54C12.4774 21.635 12.2658 21.6757 12.0684 21.6757C11.7581 21.6757 11.4619 21.5672 11.2222 21.3772L9.44519 19.9387L9.43109 19.9115L-0.00390625 25.9777L9.4875 21.8522L15.5659 31.7453C15.989 32.4238 17.0186 32.4374 17.4417 31.7453L24.3522 20.6579C23.8022 20.9158 23.1393 20.7801 22.7303 20.3187Z" fill="#F8D448"/>
<path d="M8.71179 19.5044L3.12695 23.1007L8.34511 19.3416L8.71179 19.5044Z" fill="#F8D448"/>
</g>
<path d="M51.8009 9.73866H45.8969L43.5209 23.2747H39.1769L41.5529 9.73866H35.6249L36.2969 5.99466H52.4729L51.8009 9.73866ZM63.1118 14.1787C63.1118 14.7227 63.0158 15.2507 62.8238 15.7627C62.6478 16.2747 62.4718 16.6507 62.2958 16.8907L62.0318 17.2267H58.4078C58.8078 16.8587 59.0078 16.4027 59.0078 15.8587C59.0078 15.5707 58.9118 15.3387 58.7198 15.1627C58.5438 14.9707 58.2958 14.8747 57.9758 14.8747C57.4318 14.8747 56.9598 15.1467 56.5598 15.6907L55.2158 23.2747H51.1358L53.1758 11.7307H56.9678L56.6798 13.3387C57.5918 12.0427 58.6958 11.3947 59.9918 11.3947C61.0318 11.3947 61.8078 11.6427 62.3198 12.1387C62.8478 12.6347 63.1118 13.3147 63.1118 14.1787ZM68.864 20.2027C69.232 20.2027 69.56 20.1227 69.848 19.9627L69.728 22.6747C68.976 23.2987 68.12 23.6107 67.16 23.6107C65.704 23.6107 64.76 23.2747 64.328 22.6027C64.04 22.1547 63.896 21.6827 63.896 21.1867C63.896 20.6747 63.928 20.2267 63.992 19.8427L65.432 11.7307H69.512L68.168 19.2907C68.152 19.3867 68.144 19.4747 68.144 19.5547C68.144 19.9867 68.384 20.2027 68.864 20.2027ZM65.912 7.81866C65.912 6.79466 66.136 6.05066 66.584 5.58666C67.048 5.10666 67.76 4.86666 68.72 4.86666C70.064 4.86666 70.736 5.45866 70.736 6.64266C70.736 7.65066 70.504 8.38666 70.04 8.85066C69.592 9.31466 68.88 9.54666 67.904 9.54666C66.576 9.54666 65.912 8.97066 65.912 7.81866ZM83.3234 14.2267C83.3234 14.7547 83.1634 15.2427 82.8434 15.6907H78.9074C79.0354 15.5947 79.0994 15.4347 79.0994 15.2107C79.0994 14.9867 78.9714 14.8107 78.7154 14.6827C78.4594 14.5387 78.1314 14.4667 77.7314 14.4667C76.5314 14.4667 75.9314 14.8347 75.9314 15.5707C75.9314 15.8587 76.1554 16.0667 76.6034 16.1947C77.0514 16.3227 77.5954 16.4267 78.2354 16.5067C78.8754 16.5867 79.5154 16.7067 80.1554 16.8667C80.7954 17.0107 81.3394 17.3067 81.7874 17.7547C82.2354 18.2027 82.4594 18.8027 82.4594 19.5547C82.4594 20.8827 81.9234 21.8907 80.8514 22.5787C79.7954 23.2667 78.2514 23.6107 76.2194 23.6107C74.1874 23.6107 72.7634 23.2827 71.9474 22.6267C71.3074 22.1147 70.9874 21.4107 70.9874 20.5147C70.9874 20.2587 71.0114 19.9947 71.0594 19.7227L75.0674 19.6747C75.0354 19.8987 75.1634 20.0987 75.4514 20.2747C75.7554 20.4347 76.1954 20.5147 76.7714 20.5147C77.3474 20.5147 77.7634 20.4587 78.0194 20.3467C78.2754 20.2187 78.4034 19.9867 78.4034 19.6507C78.4034 19.4267 78.1794 19.2747 77.7314 19.1947C77.2834 19.0987 76.7314 19.0187 76.0754 18.9547C75.4354 18.8907 74.7874 18.7867 74.1314 18.6427C73.4914 18.4987 72.9474 18.1947 72.4994 17.7307C72.0514 17.2667 71.8274 16.6587 71.8274 15.9067C71.8274 14.4507 72.3874 13.3307 73.5074 12.5467C74.6434 11.7627 76.2754 11.3707 78.4034 11.3707C81.6834 11.3707 83.3234 12.3227 83.3234 14.2267ZM91.6713 11.3947C93.3993 11.3947 94.7033 11.7707 95.5833 12.5227C96.2713 13.1147 96.6153 13.9387 96.6153 14.9947C96.6153 15.3467 96.5753 15.7307 96.4953 16.1467L95.9913 18.9547C95.6873 20.6507 94.9753 21.8507 93.8553 22.5547C92.7513 23.2587 91.2713 23.6107 89.4153 23.6107C87.5593 23.6107 86.1993 23.2587 85.3353 22.5547C84.6953 22.0267 84.3753 21.2347 84.3753 20.1787C84.3753 19.8107 84.4153 19.4027 84.4953 18.9547L84.9993 16.1467C85.5593 12.9787 87.7833 11.3947 91.6713 11.3947ZM92.3193 16.6267C92.3513 16.4667 92.3673 16.2667 92.3673 16.0267C92.3673 15.7707 92.2633 15.4907 92.0553 15.1867C91.8473 14.8827 91.4793 14.7307 90.9513 14.7307C90.4393 14.7307 90.0073 14.9067 89.6553 15.2587C89.3033 15.5947 89.0793 16.0507 88.9833 16.6267L88.6713 18.4267C88.6393 18.5867 88.6233 18.7947 88.6233 19.0507C88.6233 19.2907 88.7273 19.5547 88.9353 19.8427C89.1433 20.1307 89.5033 20.2747 90.0153 20.2747C90.5433 20.2747 90.9833 20.0987 91.3353 19.7467C91.6873 19.3787 91.9113 18.9387 92.0073 18.4267L92.3193 16.6267ZM108.602 23.6587C108.25 25.6907 107.442 27.2987 106.178 28.4827C104.93 29.6667 103.498 30.2587 101.882 30.2587C100.266 30.2587 99.0982 29.9627 98.3782 29.3707C97.6742 28.7787 97.3222 28.0027 97.3222 27.0427C97.3222 25.6347 98.2182 24.4107 100.01 23.3707C98.6502 22.9387 97.9702 21.9067 97.9702 20.2747C97.9702 19.8747 98.0102 19.4347 98.0902 18.9547L98.5702 16.1467C98.8262 14.7067 99.4182 13.5627 100.346 12.7147C101.274 11.8507 102.474 11.4187 103.946 11.4187C105.434 11.4187 106.45 11.7787 106.994 12.4987L107.138 11.7307H110.714L108.602 23.6587ZM102.266 18.4267C102.234 18.5707 102.218 18.7707 102.218 19.0267C102.218 19.2827 102.338 19.5387 102.578 19.7947C102.818 20.0347 103.218 20.1547 103.778 20.1547C104.354 20.1547 104.85 19.9307 105.266 19.4827L105.986 15.4507C105.762 15.0507 105.338 14.8507 104.714 14.8507C104.09 14.8507 103.602 15.0107 103.25 15.3307C102.898 15.6507 102.674 16.0827 102.578 16.6267L102.266 18.4267ZM102.434 26.8267C103.474 26.8267 104.154 25.8827 104.474 23.9947L104.714 22.6027C102.49 23.6427 101.378 24.6907 101.378 25.7467C101.378 26.0667 101.466 26.3227 101.642 26.5147C101.834 26.7227 102.098 26.8267 102.434 26.8267Z" fill="white"/>
<defs>
<clipPath id="clip0_6117_1016">
<rect width="32" height="32" fill="white" transform="translate(0 0.274658)"/>
</clipPath>
</defs>
</svg>
